<svg preserveAspectRatio="none" width="100%" height="100%" overflow="visible" style="display: block;" viewBox="0 0 14.2777 9.84002" fill="none" xmlns="http://www.w3.org/2000/svg">
<path id="Vector" d="M0.489121 0.223003L0.49145 0.111502L0.493779 0L0.612566 0.0162607C0.680111 0.0255525 1.54655 0.0278754 2.53877 0.0255525C3.53099 0.0209066 4.45333 0.0162607 4.58842 0.0162607C4.72351 0.0139377 4.97506 0.0209066 5.14742 0.0325213C5.31977 0.0418131 5.59694 0.0696885 5.76464 0.095241C5.93001 0.120793 6.17224 0.167252 6.30034 0.197451C6.42845 0.229972 6.62643 0.288046 6.74288 0.327536C6.85934 0.369349 7.06198 0.457621 7.19707 0.52731C7.33216 0.596998 7.52548 0.720115 7.62796 0.799095C7.73044 0.880398 7.8632 1.00351 7.92376 1.0732C7.98432 1.14289 8.0868 1.28691 8.15202 1.39609C8.21723 1.50527 8.30108 1.68646 8.33835 1.80261C8.37329 1.91643 8.41754 2.09995 8.43384 2.20913C8.45015 2.3276 8.45714 2.51576 8.44782 2.68533C8.44083 2.8642 8.41754 3.02448 8.38726 3.13134C8.35931 3.22426 8.2941 3.38686 8.24285 3.4914C8.18928 3.59825 8.09146 3.75853 8.02391 3.84681C7.95637 3.93508 7.81895 4.08839 7.7188 4.18363C7.61631 4.27888 7.46725 4.40664 7.3834 4.46471C7.29955 4.52511 7.11089 4.63661 6.96415 4.71327C6.81742 4.79225 6.58683 4.89213 6.45174 4.93627C6.31665 4.98273 6.18855 5.0199 6.16525 5.0199C6.14429 5.0199 6.13032 5.03383 6.13498 5.04777C6.13963 5.06403 6.27705 5.29633 6.44009 5.56579C6.60313 5.83293 6.84304 6.20925 6.97347 6.40205C7.1039 6.59253 7.30421 6.87129 7.41834 7.01763C7.53013 7.16398 7.7351 7.41951 7.87019 7.58676C8.00528 7.75401 8.28478 8.05599 8.48974 8.26274C8.69471 8.46716 8.95092 8.7041 9.06038 8.78772C9.16986 8.87135 9.35153 9.00143 9.46799 9.07809C9.58444 9.15475 9.77077 9.26625 9.88723 9.322C10.0037 9.38008 10.183 9.45441 10.2878 9.48925C10.395 9.52178 10.572 9.56591 10.6838 9.5845C10.7979 9.60308 10.9773 9.61934 11.0867 9.61934C11.1962 9.61934 11.3756 9.60308 11.4874 9.5845C11.6015 9.56591 11.7785 9.51713 11.8833 9.47532C12.0347 9.41724 12.1046 9.37311 12.2071 9.2709C12.3165 9.16404 12.3468 9.11526 12.3911 8.98053C12.426 8.87135 12.447 8.73429 12.454 8.5624C12.4609 8.3905 12.4493 8.14891 12.4167 7.81905C12.3887 7.54959 12.3608 7.28942 12.3561 7.23831C12.3491 7.18721 12.3235 6.94098 12.2979 6.69242C12.2723 6.44387 12.2467 6.18137 12.2397 6.11168C12.2304 6.042 12.221 5.94211 12.2164 5.891C12.2117 5.8399 12.1954 5.70284 12.1814 5.58902C12.1698 5.47287 12.1488 5.27542 12.1349 5.14766C12.1232 5.0199 12.0929 4.71559 12.0673 4.474C12.0394 4.23009 12.0137 3.97921 12.0068 3.9165C11.9998 3.85145 11.9695 3.55412 11.9392 3.25445C11.9066 2.95479 11.8414 2.32992 11.7925 1.86533C11.7436 1.40306 11.697 1.02442 11.6853 1.02442C11.676 1.02442 11.6481 1.08482 11.6201 1.15683C11.5922 1.23116 11.2172 2.237 10.784 3.39383C10.3507 4.55066 9.82667 5.9514 9.61938 6.50659C9.41209 7.06177 9.23507 7.52404 9.22575 7.53565C9.21877 7.54494 9.14423 7.49616 9.06038 7.4288C8.97654 7.36143 8.83912 7.2267 8.75527 7.13146C8.67142 7.03622 8.54331 6.88523 8.47344 6.79695C8.40124 6.70868 8.28944 6.55072 8.10776 6.26268L8.17764 6.07684C8.2149 5.97463 8.72964 4.56924 10.402 0.0139377H13.5556V0.188159L13.374 0.199774C13.2761 0.206743 13.1061 0.229972 12.9966 0.248556C12.8872 0.269462 12.7358 0.313598 12.6589 0.348443C12.5821 0.383287 12.4796 0.450652 12.4307 0.497111C12.3841 0.543571 12.3189 0.631843 12.2886 0.692239C12.2583 0.754959 12.2164 0.885044 12.1954 0.982608C12.1745 1.0825 12.1582 1.26136 12.1582 1.37751C12.1582 1.49598 12.1698 1.70969 12.1814 1.84907C12.1954 1.98845 12.249 2.45536 12.3002 2.88278C12.3514 3.30995 12.4073 3.79048 12.426 3.95105L12.426 3.95134C12.447 4.11162 12.4656 4.28352 12.4726 4.33463C12.4772 4.38573 12.5099 4.64822 12.5425 4.91536C12.5751 5.1825 12.61 5.49146 12.624 5.60063C12.6356 5.70981 12.6682 5.97695 12.6939 6.19299C12.7195 6.40902 12.7451 6.6297 12.7521 6.68081C12.7567 6.73191 12.8103 7.1663 12.8662 7.64483C12.9268 8.14427 12.9966 8.60886 13.0269 8.73662C13.0595 8.85741 13.1108 9.01305 13.1457 9.07809C13.1783 9.14546 13.2459 9.24534 13.2971 9.29877C13.346 9.35452 13.4485 9.42886 13.523 9.46602C13.5999 9.50319 13.728 9.54733 13.8118 9.56359C13.8957 9.58217 14.0005 9.59611 14.0448 9.59611C14.089 9.59611 14.1612 9.60308 14.2031 9.61237C14.273 9.62863 14.2777 9.63792 14.2777 9.80518L14.1542 9.79588C14.089 9.78891 13.6651 9.78195 13.2179 9.7773C12.7684 9.77498 11.4128 9.77962 8.00062 9.81214L7.81429 9.6054C7.70948 9.49158 7.53246 9.28948 7.41601 9.15475C7.29955 9.02002 7.09691 8.77611 6.96182 8.60886L6.95246 8.59726C6.81835 8.43122 6.6407 8.21129 6.55422 8.09781C6.46339 7.98166 6.30733 7.77259 6.20485 7.63322C6.10004 7.49152 5.90206 7.20579 5.75998 6.99441C5.62023 6.78302 5.44788 6.51123 5.378 6.39044C5.30813 6.26964 5.21263 6.09078 5.16838 5.99554C5.1218 5.9003 5.05891 5.74698 5.02863 5.65871C4.98903 5.54256 4.97273 5.44267 4.97273 5.30562C4.97273 5.13604 4.97972 5.11049 5.03096 5.05474C5.06357 5.0199 5.11481 4.98041 5.14742 4.96415C5.18002 4.94789 5.26853 4.92233 5.34539 4.90375C5.42226 4.88749 5.54803 4.84335 5.62489 4.80619C5.70175 4.76902 5.84849 4.66913 5.95097 4.58318C6.05113 4.49723 6.20252 4.34392 6.28171 4.24171C6.36323 4.1395 6.47736 3.96063 6.53792 3.84681C6.59615 3.73066 6.67068 3.56341 6.70096 3.47513C6.73124 3.38686 6.77083 3.2289 6.78947 3.12669C6.81043 3.02448 6.8244 2.81077 6.8244 2.65049C6.8244 2.4902 6.81043 2.27185 6.78947 2.16267C6.77083 2.05349 6.7359 1.90714 6.7126 1.83745C6.68931 1.76777 6.63574 1.64233 6.59615 1.5587C6.55655 1.47507 6.46804 1.33337 6.39817 1.2451C6.33062 1.15451 6.20019 1.0221 6.11168 0.947764C6.01619 0.866461 5.84849 0.759605 5.69477 0.68527C5.53638 0.60629 5.35005 0.536602 5.20565 0.501757C5.07754 0.469236 4.85627 0.432069 4.71652 0.418131C4.56513 0.401871 4.3229 0.397225 4.12259 0.406516C3.93626 0.415808 3.72664 0.429746 3.65443 0.439038C3.5799 0.44833 3.51701 0.459944 3.51003 0.466913C3.50304 0.473882 3.49139 0.634166 3.48208 0.82697C3.47509 1.01745 3.46344 1.27995 3.45878 1.40771C3.4518 1.53547 3.43549 1.74221 3.42385 1.86533C3.40987 1.99077 3.39124 2.19519 3.37726 2.31831C3.36562 2.44374 3.34931 2.62029 3.34233 2.70856C3.33534 2.79683 3.32369 2.90833 3.31904 2.95247C3.31205 2.99661 3.28177 3.31021 3.24916 3.64936C3.21655 3.98851 3.17463 4.43684 3.156 4.64822C3.13503 4.85961 3.07215 5.51701 3.01625 6.11168C2.95802 6.70636 2.89047 7.40557 2.86485 7.66806C2.83923 7.93055 2.81361 8.28132 2.80895 8.44625C2.80662 8.6135 2.81128 8.82257 2.82293 8.91084C2.83457 9.00143 2.86252 9.11526 2.88581 9.16636C2.90911 9.21747 2.95802 9.29645 2.99761 9.34059C3.03721 9.38472 3.12572 9.44976 3.19326 9.48461C3.26314 9.51713 3.38658 9.56127 3.47043 9.57985C3.55428 9.60076 3.72897 9.62399 4.0993 9.65418V9.84002L3.36096 9.82144C2.95336 9.81214 2.03102 9.80982 0 9.82841V9.65418L0.19099 9.6356C0.298131 9.62399 0.428563 9.6054 0.482134 9.59379C0.538033 9.58217 0.638187 9.55197 0.703403 9.52874C0.770948 9.50319 0.871101 9.44047 0.924672 9.38937C0.980571 9.33594 1.0551 9.22908 1.0947 9.14778C1.13662 9.05719 1.18088 8.90387 1.20883 8.73662C1.23445 8.59027 1.30432 7.98863 1.36255 7.40092C1.42078 6.81321 1.47901 6.23945 1.49065 6.1233C1.50463 6.00715 1.53025 5.75627 1.54888 5.56579C1.56985 5.37299 1.59547 5.11281 1.60944 4.98505C1.62109 4.8573 1.63739 4.6947 1.64438 4.62501L1.64438 4.625C1.64904 4.55531 1.66068 4.45077 1.66534 4.3927C1.67233 4.33463 1.68164 4.24171 1.68863 4.18363C1.69562 4.12556 1.75385 3.55644 1.81674 2.91763C1.88661 2.22074 1.93319 1.64465 1.93319 1.4774C1.93319 1.32408 1.91689 1.13128 1.90058 1.04765C1.88195 0.964025 1.84469 0.845554 1.81441 0.780511C1.78413 0.717792 1.71658 0.624874 1.66301 0.571446C1.61177 0.520341 1.50929 0.450652 1.43708 0.413485C1.36488 0.378641 1.21814 0.329859 1.111 0.30663C1.00619 0.281077 0.822189 0.253202 0.489121 0.223003Z" fill="var(--fill-0, #202020)"/>
</svg>
