<svg preserveAspectRatio="none" width="100%" height="100%" overflow="visible" style="display: block;" viewBox="0 0 457.312 315.174" fill="none" xmlns="http://www.w3.org/2000/svg">
<path id="Vector" d="M15.6665 7.14276L15.7411 3.57138L15.8157 0L19.6204 0.520826C21.7839 0.818441 49.5359 0.892845 81.3165 0.818442C113.097 0.669634 142.64 0.520826 146.966 0.520826C151.293 0.446423 159.35 0.669634 164.871 1.04165C170.392 1.33927 179.269 2.23211 184.641 3.05055C189.937 3.869 197.696 5.35707 201.799 6.32432C205.902 7.36597 212.243 9.22607 215.974 10.4909C219.704 11.8302 226.194 14.6575 230.521 16.8897C234.848 19.1218 241.04 23.0652 244.322 25.5949C247.605 28.199 251.857 32.1424 253.797 34.3745C255.737 36.6067 259.019 41.2197 261.108 44.7167C263.197 48.2136 265.882 54.0171 267.076 57.7373C268.195 61.3831 269.613 67.261 270.135 70.758C270.657 74.5526 270.881 80.5793 270.582 86.0108C270.359 91.7398 269.613 96.8737 268.643 100.296C267.747 103.272 265.659 108.481 264.017 111.829C262.302 115.251 259.168 120.385 257.005 123.213C254.841 126.04 250.44 130.951 247.232 134.001C243.949 137.052 239.175 141.144 236.489 143.004C233.803 144.939 227.761 148.51 223.061 150.965C218.361 153.495 210.975 156.694 206.648 158.108C202.321 159.596 198.218 160.787 197.472 160.787C196.801 160.787 196.353 161.233 196.502 161.679C196.652 162.2 201.053 169.641 206.275 178.271C211.497 186.828 219.181 198.881 223.359 205.057C227.537 211.158 233.953 220.086 237.608 224.774C241.189 229.461 247.754 237.646 252.081 243.003C256.408 248.36 265.36 258.032 271.925 264.654C278.49 271.202 286.696 278.791 290.203 281.469C293.709 284.148 299.528 288.315 303.258 290.77C306.988 293.225 312.956 296.797 316.687 298.582C320.417 300.442 326.161 302.823 329.518 303.939C332.95 304.981 338.62 306.395 342.201 306.99C345.856 307.585 351.6 308.106 355.107 308.106C358.613 308.106 364.357 307.585 367.938 306.99C371.594 306.395 377.264 304.832 380.621 303.493C385.47 301.633 387.708 300.219 390.99 296.945C394.497 293.523 395.467 291.96 396.884 287.645C398.003 284.148 398.674 279.758 398.898 274.252C399.122 268.746 398.749 261.008 397.705 250.443C396.809 241.812 395.914 233.479 395.765 231.842C395.541 230.205 394.721 222.318 393.9 214.357C393.079 206.396 392.259 197.988 392.035 195.756C391.736 193.524 391.438 190.325 391.289 188.688C391.14 187.051 390.617 182.661 390.17 179.015C389.797 175.295 389.125 168.971 388.678 164.879C388.305 160.787 387.335 151.04 386.514 143.302C385.619 135.489 384.798 127.454 384.575 125.445C384.351 123.361 383.381 113.838 382.411 104.24C381.367 94.6416 379.278 74.627 377.711 59.7462C376.145 44.9399 374.653 32.8121 374.28 32.8121C373.981 32.8121 373.086 34.7466 372.191 37.0531C371.295 39.434 359.284 71.6508 345.408 108.704C331.532 145.757 314.747 190.622 308.107 208.405C301.468 226.187 295.798 240.994 295.5 241.366C295.276 241.663 292.888 240.101 290.203 237.943C287.517 235.786 283.116 231.47 280.43 228.42C277.744 225.369 273.641 220.533 271.403 217.705C269.09 214.878 265.509 209.819 259.69 200.593L261.929 194.64C263.122 191.367 279.609 146.352 333.174 0.446423H434.185V6.02671L428.366 6.39872C425.233 6.62194 419.787 7.36597 416.281 7.9612C412.774 8.63084 407.925 10.0445 405.463 11.1606C403.001 12.2766 399.719 14.4343 398.152 15.9224C396.66 17.4105 394.571 20.2378 393.602 22.1723C392.632 24.1812 391.289 28.3478 390.617 31.4728C389.946 34.6722 389.424 40.4012 389.424 44.1214C389.424 47.916 389.797 54.7612 390.17 59.2254C390.617 63.6896 392.333 78.6448 393.974 92.3351C395.616 106.025 397.406 121.427 398.003 126.561C398.674 131.695 399.271 137.201 399.495 138.837C399.644 140.474 400.689 148.882 401.733 157.438C402.778 165.995 403.897 175.891 404.344 179.387C404.717 182.884 405.762 191.441 406.582 198.36C407.403 205.28 408.224 212.348 408.447 213.985C408.597 215.622 410.312 229.536 412.103 244.863C414.043 260.86 416.281 275.74 417.25 279.833C418.295 283.702 419.936 288.687 421.055 290.77C422.1 292.928 424.263 296.127 425.904 297.838C427.471 299.624 430.753 302.005 433.141 303.195C435.603 304.386 439.706 305.799 442.391 306.32C445.077 306.916 448.434 307.362 449.852 307.362C451.269 307.362 453.582 307.585 454.925 307.883C457.163 308.404 457.312 308.701 457.312 314.058L453.358 313.761C451.269 313.537 437.691 313.314 423.368 313.165C408.97 313.091 365.551 313.24 256.259 314.282L250.291 307.66C246.933 304.014 241.264 297.541 237.534 293.225C233.803 288.91 227.313 281.097 222.986 275.74L222.687 275.37C218.391 270.051 212.701 263.007 209.931 259.372C207.021 255.651 202.023 248.955 198.74 244.491C195.383 239.952 189.042 230.8 184.491 224.03C180.015 217.259 174.495 208.554 172.257 204.685C170.019 200.816 166.96 195.087 165.542 192.036C164.05 188.986 162.036 184.075 161.066 181.248C159.798 177.527 159.276 174.328 159.276 169.938C159.276 164.507 159.5 163.688 161.141 161.903C162.185 160.787 163.827 159.522 164.871 159.001C165.915 158.48 168.75 157.662 171.212 157.066C173.674 156.546 177.703 155.132 180.164 153.941C182.626 152.751 187.326 149.552 190.609 146.799C193.817 144.046 198.666 139.135 201.202 135.861C203.813 132.588 207.469 126.858 209.409 123.213C211.274 119.492 213.661 114.135 214.631 111.308C215.601 108.481 216.869 103.421 217.466 100.147C218.137 96.8737 218.585 90.0286 218.585 84.8947C218.585 79.7608 218.137 72.7669 217.466 69.2699C216.869 65.7729 215.75 61.0855 215.004 58.8534C214.258 56.6213 212.542 52.6035 211.274 49.9249C210.005 47.2464 207.17 42.7078 204.932 39.8804C202.769 36.9787 198.591 32.7377 195.756 30.3567C192.698 27.7526 187.326 24.33 182.403 21.9491C177.33 19.4194 171.361 17.1873 166.736 16.0712C162.633 15.0296 155.546 13.8391 151.07 13.3927C146.22 12.8719 138.462 12.723 132.046 13.0207C126.078 13.3183 119.364 13.7647 117.051 14.0623C114.664 14.3599 112.649 14.7319 112.426 14.9552C112.202 15.1784 111.829 20.3122 111.53 26.4877C111.307 32.5888 110.934 40.9965 110.784 45.0887C110.561 49.1809 110.038 55.8028 109.665 59.7462C109.218 63.764 108.621 70.3116 108.173 74.255C107.8 78.2728 107.278 83.9274 107.054 86.7548C106.83 89.5821 106.457 93.1535 106.308 94.5672C106.084 95.9809 105.115 106.025 104.07 116.888C103.026 127.751 101.683 142.111 101.086 148.882C100.415 155.653 98.4004 176.709 96.6099 195.756C94.7449 214.804 92.5814 237.199 91.7608 245.607C90.9402 254.014 90.1195 265.249 89.9703 270.532C89.8957 275.889 90.0449 282.586 90.4179 285.413C90.7909 288.315 91.6862 291.96 92.4322 293.597C93.1782 295.234 94.7449 297.764 96.0131 299.178C97.2813 300.591 100.116 302.675 102.28 303.791C104.518 304.832 108.472 306.246 111.157 306.841C113.843 307.511 119.438 308.255 131.3 309.222V315.174L107.651 314.579C94.5957 314.281 65.0532 314.207 0 314.802V309.222L6.11738 308.627C9.54909 308.255 13.7268 307.66 15.4427 307.288C17.2331 306.916 20.441 305.948 22.5299 305.204C24.6933 304.386 27.9012 302.377 29.6171 300.74C31.4075 299.029 33.7948 295.606 35.0631 293.002C36.4059 290.1 37.8233 285.19 38.7186 279.833C39.5392 275.145 41.7773 255.875 43.6423 237.05C45.5074 218.226 47.3724 199.849 47.7454 196.128C48.1931 192.408 49.0137 184.373 49.6105 178.271C50.2819 172.096 51.1025 163.763 51.5502 159.67C51.9232 155.578 52.4454 150.37 52.6692 148.138C52.8184 145.906 53.1914 142.558 53.3406 140.698C53.5644 138.837 53.8628 135.861 54.0866 134.001C54.3104 132.141 56.1755 113.912 58.1898 93.4511C60.4278 71.13 61.9199 52.6779 61.9199 47.3208C61.9199 42.4101 61.3977 36.2346 60.8754 33.5561C60.2786 30.8776 59.085 27.083 58.1152 24.9997C57.1453 22.9908 54.9819 20.0146 53.266 18.3033C51.6248 16.6664 48.3423 14.4343 46.0296 13.2439C43.7169 12.1278 39.017 10.5653 35.5853 9.8213C32.2282 9.00286 26.3346 8.11001 15.6665 7.14276Z" fill="var(--fill-0, #202020)" fill-opacity="0.01"/>
</svg>
