<svg preserveAspectRatio="none" width="100%" height="100%" overflow="visible" style="display: block;" viewBox="0 0 29.9214 27.3781" fill="none" xmlns="http://www.w3.org/2000/svg">
<path id="Vector" d="M29.9214 13.6142C29.9214 16.3072 29.3064 18.7009 28.0763 20.7954C26.8794 22.8566 25.134 24.4691 22.84 25.6327C20.546 26.7963 17.8697 27.3781 14.8111 27.3781C11.8522 27.3781 9.25901 26.8461 7.03153 25.7823C4.80405 24.7184 3.07525 23.1558 1.84515 21.0946C0.615051 19.0333 0 16.5898 0 13.7638C0 11.0709 0.598436 8.69383 1.79529 6.63258C3.02539 4.53808 4.78743 2.90903 7.0814 1.74542C9.37538 0.581805 12.0517 0 15.1103 0C18.0692 0 20.6624 0.531935 22.8899 1.59581C25.1174 2.65968 26.8461 4.22224 28.0763 6.28349C29.3064 8.34475 29.9214 10.7883 29.9214 13.6142ZM24.9844 13.714C24.9844 10.5889 24.1033 8.16189 22.3413 6.4331C20.6125 4.70431 18.1689 3.83991 15.0106 3.83991C11.8189 3.83991 9.34213 4.70431 7.58009 6.4331C5.81805 8.12865 4.93704 10.539 4.93704 13.6641C4.93704 16.7892 5.80143 19.2162 7.53022 20.945C9.29226 22.6738 11.7525 23.5382 14.9108 23.5382C18.1025 23.5382 20.5793 22.6904 22.3413 20.9948C24.1033 19.2661 24.9844 16.8391 24.9844 13.714Z" fill="var(--fill-0, white)"/>
</svg>
