<svg preserveAspectRatio="none" width="100%" height="100%" overflow="visible" style="display: block;" viewBox="0 0 29.1734 36.4044" fill="none" xmlns="http://www.w3.org/2000/svg">
<path id="Vector" d="M0 35.6065V0H4.68769V14.462C5.81805 12.7665 7.39724 11.4366 9.42524 10.4725C11.4532 9.50835 13.6641 9.02629 16.0578 9.02629C18.6178 9.02629 20.8785 9.57485 22.84 10.672C24.8348 11.7358 26.3807 13.2984 27.4778 15.3597C28.6082 17.3877 29.1734 19.7814 29.1734 22.5408C29.1734 25.2005 28.6248 27.5776 27.5277 29.672C26.4306 31.7665 24.8514 33.4122 22.7901 34.6091C20.7289 35.8059 18.3185 36.4044 15.5591 36.4044C10.7385 36.4044 7.09802 34.7254 4.63782 31.3676V35.6065H0ZM4.63782 23.4384C4.63782 25.9651 5.50222 28.1261 7.23101 29.9214C8.06216 30.7858 9.07616 31.4507 10.273 31.9162C11.5031 32.3484 12.833 32.5645 14.2625 32.5645C17.5206 32.5645 19.9975 31.7167 21.693 30.0211C23.3886 28.3256 24.2363 25.8488 24.2363 22.5907C24.2363 19.532 23.3886 17.1549 21.693 15.4594C19.9975 13.7306 17.637 12.8662 14.6116 12.8662C13.182 12.8662 11.819 13.1322 10.5224 13.6641C9.22577 14.1628 8.11202 14.8776 7.18114 15.8085C6.38323 16.6064 5.75156 17.5373 5.28612 18.6011C4.85392 19.665 4.63782 20.7455 4.63782 21.8426V23.4384Z" fill="var(--fill-0, white)"/>
</svg>
