<svg preserveAspectRatio="none" width="100%" height="100%" overflow="visible" style="display: block;" viewBox="0 0 29.1733 36.4044" fill="none" xmlns="http://www.w3.org/2000/svg">
<path id="Vector" d="M24.5355 35.6065V30.9188C23.4052 32.6143 21.826 33.9608 19.798 34.9582C17.77 35.9223 15.5425 36.4044 13.1155 36.4044C10.5556 36.4044 8.27825 35.8724 6.28349 34.8086C4.32198 33.7114 2.77603 32.1489 1.64567 30.1209C0.548548 28.0596 0 25.6493 0 22.8899C0 20.2302 0.548548 17.8531 1.64567 15.7586C2.74278 13.6641 4.32197 12.0184 6.38322 10.8216C8.44447 9.62472 10.8548 9.02629 13.6142 9.02629C18.3684 9.02629 21.9922 10.6886 24.4857 14.0132V0H29.1733V35.6065H24.5355ZM24.5355 21.9922C24.5355 19.4655 23.6711 17.3045 21.9423 15.5093C21.1112 14.6449 20.0806 13.9966 18.8505 13.5644C17.6536 13.0989 16.3404 12.8662 14.9108 12.8662C11.686 12.8662 9.20913 13.714 7.48033 15.4095C5.78479 17.1051 4.93702 19.5819 4.93702 22.84C4.93702 25.8986 5.76816 28.2923 7.43046 30.0211C9.12601 31.7167 11.5031 32.5645 14.5617 32.5645C15.9913 32.5645 17.3544 32.3151 18.651 31.8164C19.9476 31.2845 21.0613 30.5531 21.9922 29.6222C22.7901 28.8243 23.4052 27.8934 23.8374 26.8295C24.3028 25.7656 24.5355 24.6852 24.5355 23.588V21.9922Z" fill="var(--fill-0, white)"/>
</svg>
