<svg preserveAspectRatio="none" width="100%" height="100%" overflow="visible" style="display: block;" viewBox="0 0 28.0264 27.3781" fill="none" xmlns="http://www.w3.org/2000/svg">
<path id="Vector" d="M4.68769 15.0106C4.75418 17.6702 5.63519 19.7814 7.33074 21.3439C9.05953 22.9065 11.3701 23.6878 14.2625 23.6878C19.0832 23.6878 22.0421 22.2416 23.1392 19.3492H27.6274C26.2311 24.7018 21.7096 27.3781 14.0631 27.3781C9.67459 27.3781 6.23363 26.1812 3.74018 23.7875C1.24673 21.3938 0 18.1024 0 13.9135C0 11.2205 0.565184 8.82681 1.69555 6.73232C2.85916 4.63782 4.52146 2.99214 6.68245 1.79529C8.84344 0.598428 11.3535 0 14.2127 0C18.5679 0 21.959 1.14699 24.3859 3.44096C26.8129 5.70169 28.0264 8.87668 28.0264 12.9659V15.0106H4.68769ZM23.4384 11.4699C23.4052 8.97642 22.5907 7.04815 20.9948 5.68506C19.399 4.32198 17.1217 3.64044 14.1628 3.64044C11.6029 3.64044 9.47511 4.3386 7.77957 5.73494C6.08402 7.13127 5.08664 9.04291 4.78742 11.4699H23.4384Z" fill="var(--fill-0, white)"/>
</svg>
