<svg preserveAspectRatio="none" width="100%" height="100%" overflow="visible" style="display: block;" viewBox="0 0 68.8379 16.1492" fill="none" xmlns="http://www.w3.org/2000/svg">
<g id="Group 1000002908">
<path id="Subtract" d="M31.2464 0.090281C33.0742 -0.0191611 34.9999 0.121811 36.8333 0.0629372C39.0861 -0.00932711 40.9947 0.248499 42.8441 1.63227C44.5077 2.87963 45.6019 4.74166 45.8821 6.8022C46.5587 11.6807 43.599 15.4487 38.7532 16.0874C37.3724 16.1275 35.9145 16.0901 34.5267 16.102C31.509 16.1434 29.0431 16.2964 26.5521 14.2651C23.2526 11.6403 22.9004 6.06452 25.5823 2.89595C27.064 1.14567 28.9951 0.284019 31.2464 0.090281ZM37.9857 4.38423C36.8652 4.15124 33.4611 4.22809 32.2376 4.29731C31.1228 4.46194 30.2624 4.86454 29.5696 5.79731C28.9644 6.62252 28.7136 7.65562 28.8734 8.66645C29.022 9.66297 29.5221 10.5292 30.3402 11.1235C30.7981 11.4562 31.324 11.6839 31.8802 11.7895C32.561 11.9238 36.8904 11.9358 37.6077 11.8422C39.8619 11.4229 41.3075 9.69003 40.8734 7.35688C40.7029 6.38649 40.1498 5.52525 39.3392 4.96528C38.9306 4.68534 38.4702 4.48774 37.9857 4.38423Z" fill="var(--fill-0, black)"/>
<path id="Vector" d="M57.2529 4.33594C58.2092 3.23839 59.3098 2.20144 60.3402 1.16813C60.7698 0.737425 61.218 0.364763 61.8123 0.188203C62.752 -0.0910372 67.45 0.0631102 68.7077 0.0618969C67.8624 1.02618 66.6922 2.16862 65.78 3.09146L60.9013 8.03355L66.7593 13.9111C67.0504 14.2036 68.6949 15.7977 68.8379 16.0073L68.7907 16.0753L68.541 16.0839L63.1446 16.0984C62.5765 16.0957 62.0185 16.0506 61.5059 15.7829C60.653 15.3379 58.0489 12.4725 57.228 11.6415C56.1018 12.7999 54.9827 13.9683 53.8381 15.1087C53.4435 15.502 53.005 15.8339 52.463 15.9899C51.5679 16.2474 46.7997 16.0984 45.5836 16.0998L53.6319 8.04383L45.7623 0.0672598C47.7465 0.0675152 49.7325 0.0578106 51.7173 0.052319C53.2156 0.0482322 53.7908 0.748407 54.7472 1.7411C55.5796 2.60475 56.4223 3.46948 57.2529 4.33594Z" fill="var(--fill-0, black)"/>
<path id="Vector_2" d="M11.9857 10.6779C13.087 8.69778 14.1744 6.7099 15.2478 4.71441C17.7779 0.0271627 17.323 -0.172514 23.068 0.0631131C23.3327 0.0739685 23.7 0.0654767 23.9767 0.0665623L22.0011 3.58992L17.7561 11.1491C17.1618 12.2148 15.8158 15.0806 14.8308 15.6668C13.7524 16.3086 9.42111 16.4466 8.58034 15.2228C7.63589 13.8479 6.73218 12.0989 5.89345 10.6035L0 0.0692437C1.09817 0.0641991 4.48482 -0.0398216 5.39434 0.208768C5.88291 0.34031 6.31837 0.620956 6.63993 1.01175C7.04116 1.49661 8.10639 3.59528 8.45892 4.25127C9.61359 6.40492 10.7893 8.54727 11.9857 10.6779Z" fill="var(--fill-0, black)"/>
</g>
</svg>
