<svg width="43" height="43" viewBox="0 0 43 43" fill="none" xmlns="http://www.w3.org/2000/svg">
<rect width="43" height="43" fill="black"/>
<path d="M16.5368 12.4546C16.2464 12.4546 16.0352 12.2434 16.0352 11.953C16.0352 11.6626 16.2464 11.4514 16.5368 11.4514C16.8272 11.4514 17.0384 11.6626 17.0384 11.953C17.0384 12.2434 16.8272 12.4546 16.5368 12.4546ZM12.524 12.4546C12.2336 12.4546 12.0224 12.2434 12.0224 11.953C12.0224 11.6626 12.2336 11.4514 12.524 11.4514C12.8144 11.4514 13.0256 11.6626 13.0256 11.953C13.0256 12.2434 12.8144 12.4546 12.524 12.4546ZM14.5304 12.4546C14.24 12.4546 14.0288 12.2434 14.0288 11.953C14.0288 11.6626 14.24 11.4514 14.5304 11.4514C14.8208 11.4514 15.032 11.6626 15.032 11.953C15.032 12.2434 14.8208 12.4546 14.5304 12.4546ZM15.5336 12.4546C15.2432 12.4546 15.032 12.2434 15.032 11.953C15.032 11.6626 15.2432 11.4514 15.5336 11.4514C15.824 11.4514 16.0352 11.6626 16.0352 11.953C16.0352 12.2434 15.824 12.4546 15.5336 12.4546ZM13.5272 12.4546C13.2368 12.4546 13.0256 12.2434 13.0256 11.953C13.0256 11.6626 13.2368 11.4514 13.5272 11.4514C13.8176 11.4514 14.0288 11.6626 14.0288 11.953C14.0288 12.2434 13.8176 12.4546 13.5272 12.4546ZM11.5208 12.4546C11.2304 12.4546 11.0192 12.2434 11.0192 11.953C11.0192 11.6626 11.2304 11.4514 11.5208 11.4514C11.8112 11.4514 12.0224 11.6626 12.0224 11.953C12.0224 12.2434 11.8112 12.4546 11.5208 12.4546ZM17.54 12.4546C17.2496 12.4546 17.0384 12.2434 17.0384 11.953C17.0384 11.6626 17.2496 11.4514 17.54 11.4514C17.8304 11.4514 18.0416 11.6626 18.0416 11.953C18.0416 12.2434 17.8304 12.4546 17.54 12.4546ZM19.5464 13.4578C19.256 13.4578 19.0448 13.2466 19.0448 12.9562C19.0448 12.6658 19.256 12.4546 19.5464 12.4546C19.8368 12.4546 20.048 12.6658 20.048 12.9562C20.048 13.2466 19.8368 13.4578 19.5464 13.4578ZM16.5368 13.4578C16.2464 13.4578 16.0352 13.2466 16.0352 12.9562C16.0352 12.6658 16.2464 12.4546 16.5368 12.4546C16.8272 12.4546 17.0384 12.6658 17.0384 12.9562C17.0384 13.2466 16.8272 13.4578 16.5368 13.4578ZM13.5272 13.4578C13.2368 13.4578 13.0256 13.2466 13.0256 12.9562C13.0256 12.6658 13.2368 12.4546 13.5272 12.4546C13.8176 12.4546 14.0288 12.6658 14.0288 12.9562C14.0288 13.2466 13.8176 13.4578 13.5272 13.4578ZM17.54 13.4578C17.2496 13.4578 17.0384 13.2466 17.0384 12.9562C17.0384 12.6658 17.2496 12.4546 17.54 12.4546C17.8304 12.4546 18.0416 12.6658 18.0416 12.9562C18.0416 13.2466 17.8304 13.4578 17.54 13.4578ZM15.5336 13.4578C15.2432 13.4578 15.032 13.2466 15.032 12.9562C15.032 12.6658 15.2432 12.4546 15.5336 12.4546C15.824 12.4546 16.0352 12.6658 16.0352 12.9562C16.0352 13.2466 15.824 13.4578 15.5336 13.4578ZM14.5304 13.4578C14.24 13.4578 14.0288 13.2466 14.0288 12.9562C14.0288 12.6658 14.24 12.4546 14.5304 12.4546C14.8208 12.4546 15.032 12.6658 15.032 12.9562C15.032 13.2466 14.8208 13.4578 14.5304 13.4578ZM18.5432 13.4578C18.2528 13.4578 18.0416 13.2466 18.0416 12.9562C18.0416 12.6658 18.2528 12.4546 18.5432 12.4546C18.8336 12.4546 19.0448 12.6658 19.0448 12.9562C19.0448 13.2466 18.8336 13.4578 18.5432 13.4578ZM10.5176 13.4578C10.2272 13.4578 10.016 13.2466 10.016 12.9562C10.016 12.6658 10.2272 12.4546 10.5176 12.4546C10.808 12.4546 11.0192 12.6658 11.0192 12.9562C11.0192 13.2466 10.808 13.4578 10.5176 13.4578ZM11.5208 13.4578C11.2304 13.4578 11.0192 13.2466 11.0192 12.9562C11.0192 12.6658 11.2304 12.4546 11.5208 12.4546C11.8112 12.4546 12.0224 12.6658 12.0224 12.9562C12.0224 13.2466 11.8112 13.4578 11.5208 13.4578ZM9.5144 13.4578C9.224 13.4578 9.0128 13.2466 9.0128 12.9562C9.0128 12.6658 9.224 12.4546 9.5144 12.4546C9.8048 12.4546 10.016 12.6658 10.016 12.9562C10.016 13.2466 9.8048 13.4578 9.5144 13.4578ZM12.524 13.4578C12.2336 13.4578 12.0224 13.2466 12.0224 12.9562C12.0224 12.6658 12.2336 12.4546 12.524 12.4546C12.8144 12.4546 13.0256 12.6658 13.0256 12.9562C13.0256 13.2466 12.8144 13.4578 12.524 13.4578ZM10.5176 14.461C10.2272 14.461 10.016 14.2498 10.016 13.9594C10.016 13.669 10.2272 13.4578 10.5176 13.4578C10.808 13.4578 11.0192 13.669 11.0192 13.9594C11.0192 14.2498 10.808 14.461 10.5176 14.461ZM9.5144 14.461C9.224 14.461 9.0128 14.2498 9.0128 13.9594C9.0128 13.669 9.224 13.4578 9.5144 13.4578C9.8048 13.4578 10.016 13.669 10.016 13.9594C10.016 14.2498 9.8048 14.461 9.5144 14.461ZM20.5496 14.461C20.2592 14.461 20.048 14.2498 20.048 13.9594C20.048 13.669 20.2592 13.4578 20.5496 13.4578C20.84 13.4578 21.0512 13.669 21.0512 13.9594C21.0512 14.2498 20.84 14.461 20.5496 14.461ZM8.5112 14.461C8.2208 14.461 8.0096 14.2498 8.0096 13.9594C8.0096 13.669 8.2208 13.4578 8.5112 13.4578C8.8016 13.4578 9.0128 13.669 9.0128 13.9594C9.0128 14.2498 8.8016 14.461 8.5112 14.461ZM18.5432 14.461C18.2528 14.461 18.0416 14.2498 18.0416 13.9594C18.0416 13.669 18.2528 13.4578 18.5432 13.4578C18.8336 13.4578 19.0448 13.669 19.0448 13.9594C19.0448 14.2498 18.8336 14.461 18.5432 14.461ZM19.5464 14.461C19.256 14.461 19.0448 14.2498 19.0448 13.9594C19.0448 13.669 19.256 13.4578 19.5464 13.4578C19.8368 13.4578 20.048 13.669 20.048 13.9594C20.048 14.2498 19.8368 14.461 19.5464 14.461ZM20.5496 15.4642C20.2592 15.4642 20.048 15.253 20.048 14.9626C20.048 14.6722 20.2592 14.461 20.5496 14.461C20.84 14.461 21.0512 14.6722 21.0512 14.9626C21.0512 15.253 20.84 15.4642 20.5496 15.4642ZM9.5144 15.4642C9.224 15.4642 9.0128 15.253 9.0128 14.9626C9.0128 14.6722 9.224 14.461 9.5144 14.461C9.8048 14.461 10.016 14.6722 10.016 14.9626C10.016 15.253 9.8048 15.4642 9.5144 15.4642ZM8.5112 15.4642C8.2208 15.4642 8.0096 15.253 8.0096 14.9626C8.0096 14.6722 8.2208 14.461 8.5112 14.461C8.8016 14.461 9.0128 14.6722 9.0128 14.9626C9.0128 15.253 8.8016 15.4642 8.5112 15.4642ZM19.5464 15.4642C19.256 15.4642 19.0448 15.253 19.0448 14.9626C19.0448 14.6722 19.256 14.461 19.5464 14.461C19.8368 14.461 20.048 14.6722 20.048 14.9626C20.048 15.253 19.8368 15.4642 19.5464 15.4642ZM8.5112 16.4674C8.2208 16.4674 8.0096 16.2562 8.0096 15.9658C8.0096 15.6754 8.2208 15.4642 8.5112 15.4642C8.8016 15.4642 9.0128 15.6754 9.0128 15.9658C9.0128 16.2562 8.8016 16.4674 8.5112 16.4674ZM7.508 16.4674C7.2176 16.4674 7.0064 16.2562 7.0064 15.9658C7.0064 15.6754 7.2176 15.4642 7.508 15.4642C7.7984 15.4642 8.0096 15.6754 8.0096 15.9658C8.0096 16.2562 7.7984 16.4674 7.508 16.4674ZM20.5496 16.4674C20.2592 16.4674 20.048 16.2562 20.048 15.9658C20.048 15.6754 20.2592 15.4642 20.5496 15.4642C20.84 15.4642 21.0512 15.6754 21.0512 15.9658C21.0512 16.2562 20.84 16.4674 20.5496 16.4674ZM21.5528 16.4674C21.2624 16.4674 21.0512 16.2562 21.0512 15.9658C21.0512 15.6754 21.2624 15.4642 21.5528 15.4642C21.8432 15.4642 22.0544 15.6754 22.0544 15.9658C22.0544 16.2562 21.8432 16.4674 21.5528 16.4674ZM7.508 17.4706C7.2176 17.4706 7.0064 17.2594 7.0064 16.969C7.0064 16.6786 7.2176 16.4674 7.508 16.4674C7.7984 16.4674 8.0096 16.6786 8.0096 16.969C8.0096 17.2594 7.7984 17.4706 7.508 17.4706ZM20.5496 17.4706C20.2592 17.4706 20.048 17.2594 20.048 16.969C20.048 16.6786 20.2592 16.4674 20.5496 16.4674C20.84 16.4674 21.0512 16.6786 21.0512 16.969C21.0512 17.2594 20.84 17.4706 20.5496 17.4706ZM8.5112 17.4706C8.2208 17.4706 8.0096 17.2594 8.0096 16.969C8.0096 16.6786 8.2208 16.4674 8.5112 16.4674C8.8016 16.4674 9.0128 16.6786 9.0128 16.969C9.0128 17.2594 8.8016 17.4706 8.5112 17.4706ZM21.5528 17.4706C21.2624 17.4706 21.0512 17.2594 21.0512 16.969C21.0512 16.6786 21.2624 16.4674 21.5528 16.4674C21.8432 16.4674 22.0544 16.6786 22.0544 16.969C22.0544 17.2594 21.8432 17.4706 21.5528 17.4706ZM7.508 18.4738C7.2176 18.4738 7.0064 18.2626 7.0064 17.9722C7.0064 17.6818 7.2176 17.4706 7.508 17.4706C7.7984 17.4706 8.0096 17.6818 8.0096 17.9722C8.0096 18.2626 7.7984 18.4738 7.508 18.4738ZM6.5048 18.4738C6.2144 18.4738 6.0032 18.2626 6.0032 17.9722C6.0032 17.6818 6.2144 17.4706 6.5048 17.4706C6.7952 17.4706 7.0064 17.6818 7.0064 17.9722C7.0064 18.2626 6.7952 18.4738 6.5048 18.4738ZM7.508 19.477C7.2176 19.477 7.0064 19.2658 7.0064 18.9754C7.0064 18.685 7.2176 18.4738 7.508 18.4738C7.7984 18.4738 8.0096 18.685 8.0096 18.9754C8.0096 19.2658 7.7984 19.477 7.508 19.477ZM6.5048 19.477C6.2144 19.477 6.0032 19.2658 6.0032 18.9754C6.0032 18.685 6.2144 18.4738 6.5048 18.4738C6.7952 18.4738 7.0064 18.685 7.0064 18.9754C7.0064 19.2658 6.7952 19.477 6.5048 19.477ZM7.508 20.4802C7.2176 20.4802 7.0064 20.269 7.0064 19.9786C7.0064 19.6882 7.2176 19.477 7.508 19.477C7.7984 19.477 8.0096 19.6882 8.0096 19.9786C8.0096 20.269 7.7984 20.4802 7.508 20.4802ZM6.5048 20.4802C6.2144 20.4802 6.0032 20.269 6.0032 19.9786C6.0032 19.6882 6.2144 19.477 6.5048 19.477C6.7952 19.477 7.0064 19.6882 7.0064 19.9786C7.0064 20.269 6.7952 20.4802 6.5048 20.4802ZM6.5048 21.4834C6.2144 21.4834 6.0032 21.2722 6.0032 20.9818C6.0032 20.6914 6.2144 20.4802 6.5048 20.4802C6.7952 20.4802 7.0064 20.6914 7.0064 20.9818C7.0064 21.2722 6.7952 21.4834 6.5048 21.4834ZM7.508 21.4834C7.2176 21.4834 7.0064 21.2722 7.0064 20.9818C7.0064 20.6914 7.2176 20.4802 7.508 20.4802C7.7984 20.4802 8.0096 20.6914 8.0096 20.9818C8.0096 21.2722 7.7984 21.4834 7.508 21.4834ZM18.5432 22.4866C18.2528 22.4866 18.0416 22.2754 18.0416 21.985C18.0416 21.6946 18.2528 21.4834 18.5432 21.4834C18.8336 21.4834 19.0448 21.6946 19.0448 21.985C19.0448 22.2754 18.8336 22.4866 18.5432 22.4866ZM20.5496 22.4866C20.2592 22.4866 20.048 22.2754 20.048 21.985C20.048 21.6946 20.2592 21.4834 20.5496 21.4834C20.84 21.4834 21.0512 21.6946 21.0512 21.985C21.0512 22.2754 20.84 22.4866 20.5496 22.4866ZM7.508 22.4866C7.2176 22.4866 7.0064 22.2754 7.0064 21.985C7.0064 21.6946 7.2176 21.4834 7.508 21.4834C7.7984 21.4834 8.0096 21.6946 8.0096 21.985C8.0096 22.2754 7.7984 22.4866 7.508 22.4866ZM21.5528 22.4866C21.2624 22.4866 21.0512 22.2754 21.0512 21.985C21.0512 21.6946 21.2624 21.4834 21.5528 21.4834C21.8432 21.4834 22.0544 21.6946 22.0544 21.985C22.0544 22.2754 21.8432 22.4866 21.5528 22.4866ZM19.5464 22.4866C19.256 22.4866 19.0448 22.2754 19.0448 21.985C19.0448 21.6946 19.256 21.4834 19.5464 21.4834C19.8368 21.4834 20.048 21.6946 20.048 21.985C20.048 22.2754 19.8368 22.4866 19.5464 22.4866ZM6.5048 22.4866C6.2144 22.4866 6.0032 22.2754 6.0032 21.985C6.0032 21.6946 6.2144 21.4834 6.5048 21.4834C6.7952 21.4834 7.0064 21.6946 7.0064 21.985C7.0064 22.2754 6.7952 22.4866 6.5048 22.4866ZM17.54 22.4866C17.2496 22.4866 17.0384 22.2754 17.0384 21.985C17.0384 21.6946 17.2496 21.4834 17.54 21.4834C17.8304 21.4834 18.0416 21.6946 18.0416 21.985C18.0416 22.2754 17.8304 22.4866 17.54 22.4866ZM16.5368 22.4866C16.2464 22.4866 16.0352 22.2754 16.0352 21.985C16.0352 21.6946 16.2464 21.4834 16.5368 21.4834C16.8272 21.4834 17.0384 21.6946 17.0384 21.985C17.0384 22.2754 16.8272 22.4866 16.5368 22.4866ZM15.5336 22.4866C15.2432 22.4866 15.032 22.2754 15.032 21.985C15.032 21.6946 15.2432 21.4834 15.5336 21.4834C15.824 21.4834 16.0352 21.6946 16.0352 21.985C16.0352 22.2754 15.824 22.4866 15.5336 22.4866ZM14.5304 22.4866C14.24 22.4866 14.0288 22.2754 14.0288 21.985C14.0288 21.6946 14.24 21.4834 14.5304 21.4834C14.8208 21.4834 15.032 21.6946 15.032 21.985C15.032 22.2754 14.8208 22.4866 14.5304 22.4866ZM7.508 23.4898C7.2176 23.4898 7.0064 23.2786 7.0064 22.9882C7.0064 22.6978 7.2176 22.4866 7.508 22.4866C7.7984 22.4866 8.0096 22.6978 8.0096 22.9882C8.0096 23.2786 7.7984 23.4898 7.508 23.4898ZM21.5528 23.4898C21.2624 23.4898 21.0512 23.2786 21.0512 22.9882C21.0512 22.6978 21.2624 22.4866 21.5528 22.4866C21.8432 22.4866 22.0544 22.6978 22.0544 22.9882C22.0544 23.2786 21.8432 23.4898 21.5528 23.4898ZM20.5496 23.4898C20.2592 23.4898 20.048 23.2786 20.048 22.9882C20.048 22.6978 20.2592 22.4866 20.5496 22.4866C20.84 22.4866 21.0512 22.6978 21.0512 22.9882C21.0512 23.2786 20.84 23.4898 20.5496 23.4898ZM14.5304 23.4898C14.24 23.4898 14.0288 23.2786 14.0288 22.9882C14.0288 22.6978 14.24 22.4866 14.5304 22.4866C14.8208 22.4866 15.032 22.6978 15.032 22.9882C15.032 23.2786 14.8208 23.4898 14.5304 23.4898ZM6.5048 23.4898C6.2144 23.4898 6.0032 23.2786 6.0032 22.9882C6.0032 22.6978 6.2144 22.4866 6.5048 22.4866C6.7952 22.4866 7.0064 22.6978 7.0064 22.9882C7.0064 23.2786 6.7952 23.4898 6.5048 23.4898ZM15.5336 23.4898C15.2432 23.4898 15.032 23.2786 15.032 22.9882C15.032 22.6978 15.2432 22.4866 15.5336 22.4866C15.824 22.4866 16.0352 22.6978 16.0352 22.9882C16.0352 23.2786 15.824 23.4898 15.5336 23.4898ZM16.5368 23.4898C16.2464 23.4898 16.0352 23.2786 16.0352 22.9882C16.0352 22.6978 16.2464 22.4866 16.5368 22.4866C16.8272 22.4866 17.0384 22.6978 17.0384 22.9882C17.0384 23.2786 16.8272 23.4898 16.5368 23.4898ZM17.54 23.4898C17.2496 23.4898 17.0384 23.2786 17.0384 22.9882C17.0384 22.6978 17.2496 22.4866 17.54 22.4866C17.8304 22.4866 18.0416 22.6978 18.0416 22.9882C18.0416 23.2786 17.8304 23.4898 17.54 23.4898ZM18.5432 23.4898C18.2528 23.4898 18.0416 23.2786 18.0416 22.9882C18.0416 22.6978 18.2528 22.4866 18.5432 22.4866C18.8336 22.4866 19.0448 22.6978 19.0448 22.9882C19.0448 23.2786 18.8336 23.4898 18.5432 23.4898ZM19.5464 23.4898C19.256 23.4898 19.0448 23.2786 19.0448 22.9882C19.0448 22.6978 19.256 22.4866 19.5464 22.4866C19.8368 22.4866 20.048 22.6978 20.048 22.9882C20.048 23.2786 19.8368 23.4898 19.5464 23.4898ZM6.5048 24.493C6.2144 24.493 6.0032 24.2818 6.0032 23.9914C6.0032 23.701 6.2144 23.4898 6.5048 23.4898C6.7952 23.4898 7.0064 23.701 7.0064 23.9914C7.0064 24.2818 6.7952 24.493 6.5048 24.493ZM21.5528 24.493C21.2624 24.493 21.0512 24.2818 21.0512 23.9914C21.0512 23.701 21.2624 23.4898 21.5528 23.4898C21.8432 23.4898 22.0544 23.701 22.0544 23.9914C22.0544 24.2818 21.8432 24.493 21.5528 24.493ZM20.5496 24.493C20.2592 24.493 20.048 24.2818 20.048 23.9914C20.048 23.701 20.2592 23.4898 20.5496 23.4898C20.84 23.4898 21.0512 23.701 21.0512 23.9914C21.0512 24.2818 20.84 24.493 20.5496 24.493ZM7.508 24.493C7.2176 24.493 7.0064 24.2818 7.0064 23.9914C7.0064 23.701 7.2176 23.4898 7.508 23.4898C7.7984 23.4898 8.0096 23.701 8.0096 23.9914C8.0096 24.2818 7.7984 24.493 7.508 24.493ZM7.508 25.4962C7.2176 25.4962 7.0064 25.285 7.0064 24.9946C7.0064 24.7042 7.2176 24.493 7.508 24.493C7.7984 24.493 8.0096 24.7042 8.0096 24.9946C8.0096 25.285 7.7984 25.4962 7.508 25.4962ZM20.5496 25.4962C20.2592 25.4962 20.048 25.285 20.048 24.9946C20.048 24.7042 20.2592 24.493 20.5496 24.493C20.84 24.493 21.0512 24.7042 21.0512 24.9946C21.0512 25.285 20.84 25.4962 20.5496 25.4962ZM8.5112 25.4962C8.2208 25.4962 8.0096 25.285 8.0096 24.9946C8.0096 24.7042 8.2208 24.493 8.5112 24.493C8.8016 24.493 9.0128 24.7042 9.0128 24.9946C9.0128 25.285 8.8016 25.4962 8.5112 25.4962ZM21.5528 25.4962C21.2624 25.4962 21.0512 25.285 21.0512 24.9946C21.0512 24.7042 21.2624 24.493 21.5528 24.493C21.8432 24.493 22.0544 24.7042 22.0544 24.9946C22.0544 25.285 21.8432 25.4962 21.5528 25.4962ZM20.5496 26.4994C20.2592 26.4994 20.048 26.2882 20.048 25.9978C20.048 25.7074 20.2592 25.4962 20.5496 25.4962C20.84 25.4962 21.0512 25.7074 21.0512 25.9978C21.0512 26.2882 20.84 26.4994 20.5496 26.4994ZM8.5112 26.4994C8.2208 26.4994 8.0096 26.2882 8.0096 25.9978C8.0096 25.7074 8.2208 25.4962 8.5112 25.4962C8.8016 25.4962 9.0128 25.7074 9.0128 25.9978C9.0128 26.2882 8.8016 26.4994 8.5112 26.4994ZM7.508 26.4994C7.2176 26.4994 7.0064 26.2882 7.0064 25.9978C7.0064 25.7074 7.2176 25.4962 7.508 25.4962C7.7984 25.4962 8.0096 25.7074 8.0096 25.9978C8.0096 26.2882 7.7984 26.4994 7.508 26.4994ZM21.5528 26.4994C21.2624 26.4994 21.0512 26.2882 21.0512 25.9978C21.0512 25.7074 21.2624 25.4962 21.5528 25.4962C21.8432 25.4962 22.0544 25.7074 22.0544 25.9978C22.0544 26.2882 21.8432 26.4994 21.5528 26.4994ZM9.5144 27.5026C9.224 27.5026 9.0128 27.2914 9.0128 27.001C9.0128 26.7106 9.224 26.4994 9.5144 26.4994C9.8048 26.4994 10.016 26.7106 10.016 27.001C10.016 27.2914 9.8048 27.5026 9.5144 27.5026ZM8.5112 27.5026C8.2208 27.5026 8.0096 27.2914 8.0096 27.001C8.0096 26.7106 8.2208 26.4994 8.5112 26.4994C8.8016 26.4994 9.0128 26.7106 9.0128 27.001C9.0128 27.2914 8.8016 27.5026 8.5112 27.5026ZM21.5528 27.5026C21.2624 27.5026 21.0512 27.2914 21.0512 27.001C21.0512 26.7106 21.2624 26.4994 21.5528 26.4994C21.8432 26.4994 22.0544 26.7106 22.0544 27.001C22.0544 27.2914 21.8432 27.5026 21.5528 27.5026ZM20.5496 27.5026C20.2592 27.5026 20.048 27.2914 20.048 27.001C20.048 26.7106 20.2592 26.4994 20.5496 26.4994C20.84 26.4994 21.0512 26.7106 21.0512 27.001C21.0512 27.2914 20.84 27.5026 20.5496 27.5026ZM21.5528 28.5058C21.2624 28.5058 21.0512 28.2946 21.0512 28.0042C21.0512 27.7138 21.2624 27.5026 21.5528 27.5026C21.8432 27.5026 22.0544 27.7138 22.0544 28.0042C22.0544 28.2946 21.8432 28.5058 21.5528 28.5058ZM8.5112 28.5058C8.2208 28.5058 8.0096 28.2946 8.0096 28.0042C8.0096 27.7138 8.2208 27.5026 8.5112 27.5026C8.8016 27.5026 9.0128 27.7138 9.0128 28.0042C9.0128 28.2946 8.8016 28.5058 8.5112 28.5058ZM10.5176 28.5058C10.2272 28.5058 10.016 28.2946 10.016 28.0042C10.016 27.7138 10.2272 27.5026 10.5176 27.5026C10.808 27.5026 11.0192 27.7138 11.0192 28.0042C11.0192 28.2946 10.808 28.5058 10.5176 28.5058ZM19.5464 28.5058C19.256 28.5058 19.0448 28.2946 19.0448 28.0042C19.0448 27.7138 19.256 27.5026 19.5464 27.5026C19.8368 27.5026 20.048 27.7138 20.048 28.0042C20.048 28.2946 19.8368 28.5058 19.5464 28.5058ZM20.5496 28.5058C20.2592 28.5058 20.048 28.2946 20.048 28.0042C20.048 27.7138 20.2592 27.5026 20.5496 27.5026C20.84 27.5026 21.0512 27.7138 21.0512 28.0042C21.0512 28.2946 20.84 28.5058 20.5496 28.5058ZM9.5144 28.5058C9.224 28.5058 9.0128 28.2946 9.0128 28.0042C9.0128 27.7138 9.224 27.5026 9.5144 27.5026C9.8048 27.5026 10.016 27.7138 10.016 28.0042C10.016 28.2946 9.8048 28.5058 9.5144 28.5058ZM10.5176 29.509C10.2272 29.509 10.016 29.2978 10.016 29.0074C10.016 28.717 10.2272 28.5058 10.5176 28.5058C10.808 28.5058 11.0192 28.717 11.0192 29.0074C11.0192 29.2978 10.808 29.509 10.5176 29.509ZM9.5144 29.509C9.224 29.509 9.0128 29.2978 9.0128 29.0074C9.0128 28.717 9.224 28.5058 9.5144 28.5058C9.8048 28.5058 10.016 28.717 10.016 29.0074C10.016 29.2978 9.8048 29.509 9.5144 29.509ZM11.5208 29.509C11.2304 29.509 11.0192 29.2978 11.0192 29.0074C11.0192 28.717 11.2304 28.5058 11.5208 28.5058C11.8112 28.5058 12.0224 28.717 12.0224 29.0074C12.0224 29.2978 11.8112 29.509 11.5208 29.509ZM12.524 29.509C12.2336 29.509 12.0224 29.2978 12.0224 29.0074C12.0224 28.717 12.2336 28.5058 12.524 28.5058C12.8144 28.5058 13.0256 28.717 13.0256 29.0074C13.0256 29.2978 12.8144 29.509 12.524 29.509ZM15.5336 29.509C15.2432 29.509 15.032 29.2978 15.032 29.0074C15.032 28.717 15.2432 28.5058 15.5336 28.5058C15.824 28.5058 16.0352 28.717 16.0352 29.0074C16.0352 29.2978 15.824 29.509 15.5336 29.509ZM17.54 29.509C17.2496 29.509 17.0384 29.2978 17.0384 29.0074C17.0384 28.717 17.2496 28.5058 17.54 28.5058C17.8304 28.5058 18.0416 28.717 18.0416 29.0074C18.0416 29.2978 17.8304 29.509 17.54 29.509ZM14.5304 29.509C14.24 29.509 14.0288 29.2978 14.0288 29.0074C14.0288 28.717 14.24 28.5058 14.5304 28.5058C14.8208 28.5058 15.032 28.717 15.032 29.0074C15.032 29.2978 14.8208 29.509 14.5304 29.509ZM18.5432 29.509C18.2528 29.509 18.0416 29.2978 18.0416 29.0074C18.0416 28.717 18.2528 28.5058 18.5432 28.5058C18.8336 28.5058 19.0448 28.717 19.0448 29.0074C19.0448 29.2978 18.8336 29.509 18.5432 29.509ZM16.5368 29.509C16.2464 29.509 16.0352 29.2978 16.0352 29.0074C16.0352 28.717 16.2464 28.5058 16.5368 28.5058C16.8272 28.5058 17.0384 28.717 17.0384 29.0074C17.0384 29.2978 16.8272 29.509 16.5368 29.509ZM21.5528 29.509C21.2624 29.509 21.0512 29.2978 21.0512 29.0074C21.0512 28.717 21.2624 28.5058 21.5528 28.5058C21.8432 28.5058 22.0544 28.717 22.0544 29.0074C22.0544 29.2978 21.8432 29.509 21.5528 29.509ZM13.5272 29.509C13.2368 29.509 13.0256 29.2978 13.0256 29.0074C13.0256 28.717 13.2368 28.5058 13.5272 28.5058C13.8176 28.5058 14.0288 28.717 14.0288 29.0074C14.0288 29.2978 13.8176 29.509 13.5272 29.509ZM20.5496 29.509C20.2592 29.509 20.048 29.2978 20.048 29.0074C20.048 28.717 20.2592 28.5058 20.5496 28.5058C20.84 28.5058 21.0512 28.717 21.0512 29.0074C21.0512 29.2978 20.84 29.509 20.5496 29.509ZM17.54 30.5122C17.2496 30.5122 17.0384 30.301 17.0384 30.0106C17.0384 29.7202 17.2496 29.509 17.54 29.509C17.8304 29.509 18.0416 29.7202 18.0416 30.0106C18.0416 30.301 17.8304 30.5122 17.54 30.5122ZM21.5528 30.5122C21.2624 30.5122 21.0512 30.301 21.0512 30.0106C21.0512 29.7202 21.2624 29.509 21.5528 29.509C21.8432 29.509 22.0544 29.7202 22.0544 30.0106C22.0544 30.301 21.8432 30.5122 21.5528 30.5122ZM20.5496 30.5122C20.2592 30.5122 20.048 30.301 20.048 30.0106C20.048 29.7202 20.2592 29.509 20.5496 29.509C20.84 29.509 21.0512 29.7202 21.0512 30.0106C21.0512 30.301 20.84 30.5122 20.5496 30.5122ZM16.5368 30.5122C16.2464 30.5122 16.0352 30.301 16.0352 30.0106C16.0352 29.7202 16.2464 29.509 16.5368 29.509C16.8272 29.509 17.0384 29.7202 17.0384 30.0106C17.0384 30.301 16.8272 30.5122 16.5368 30.5122ZM13.5272 30.5122C13.2368 30.5122 13.0256 30.301 13.0256 30.0106C13.0256 29.7202 13.2368 29.509 13.5272 29.509C13.8176 29.509 14.0288 29.7202 14.0288 30.0106C14.0288 30.301 13.8176 30.5122 13.5272 30.5122ZM15.5336 30.5122C15.2432 30.5122 15.032 30.301 15.032 30.0106C15.032 29.7202 15.2432 29.509 15.5336 29.509C15.824 29.509 16.0352 29.7202 16.0352 30.0106C16.0352 30.301 15.824 30.5122 15.5336 30.5122ZM14.5304 30.5122C14.24 30.5122 14.0288 30.301 14.0288 30.0106C14.0288 29.7202 14.24 29.509 14.5304 29.509C14.8208 29.509 15.032 29.7202 15.032 30.0106C15.032 30.301 14.8208 30.5122 14.5304 30.5122ZM12.524 30.5122C12.2336 30.5122 12.0224 30.301 12.0224 30.0106C12.0224 29.7202 12.2336 29.509 12.524 29.509C12.8144 29.509 13.0256 29.7202 13.0256 30.0106C13.0256 30.301 12.8144 30.5122 12.524 30.5122ZM11.5208 30.5122C11.2304 30.5122 11.0192 30.301 11.0192 30.0106C11.0192 29.7202 11.2304 29.509 11.5208 29.509C11.8112 29.509 12.0224 29.7202 12.0224 30.0106C12.0224 30.301 11.8112 30.5122 11.5208 30.5122Z" fill="white"/>
<path d="M22.9055 12.4546V11.953H36.9503V12.4546H22.9055ZM22.9055 13.4578V12.9562H36.9503V13.4578H22.9055ZM28.9247 14.461V13.9594H30.9311V14.461H28.9247ZM28.9247 15.4642V14.9626H30.9311V15.4642H28.9247ZM28.9247 16.4674V15.9658H30.9311V16.4674H28.9247ZM28.9247 17.4706V16.969H30.9311V17.4706H28.9247ZM28.9247 18.4738V17.9722H30.9311V18.4738H28.9247ZM28.9247 19.477V18.9754H30.9311V19.477H28.9247ZM28.9247 20.4802V19.9786H30.9311V20.4802H28.9247ZM28.9247 21.4834V20.9818H30.9311V21.4834H28.9247ZM28.9247 22.4866V21.985H30.9311V22.4866H28.9247ZM28.9247 23.4898V22.9882H30.9311V23.4898H28.9247ZM28.9247 24.493V23.9914H30.9311V24.493H28.9247ZM28.9247 25.4962V24.9946H30.9311V25.4962H28.9247ZM28.9247 26.4994V25.9978H30.9311V26.4994H28.9247ZM28.9247 27.5026V27.001H30.9311V27.5026H28.9247ZM28.9247 28.5058V28.0042H30.9311V28.5058H28.9247ZM28.9247 29.509V29.0074H30.9311V29.509H28.9247ZM28.9247 30.5122V30.0106H30.9311V30.5122H28.9247Z" fill="white"/>
</svg>
